<svg width="34" height="34" viewBox="0 0 34 34" fill="none" xmlns="http://www.w3.org/2000/svg">
<path d="M11.6667 32.7516V19.7516C11.6667 18.0947 13.0098 16.7516 14.6667 16.7516H19.3333C20.9902 16.7516 22.3333 18.0947 22.3333 19.7516V32.7516M33 29.5516V13.5136C33 12.5346 32.5224 11.6172 31.7204 11.0559L18.7204 1.95586C17.6874 1.23279 16.3126 1.23278 15.2796 1.95586L2.27961 11.0559C1.47763 11.6172 1 12.5346 1 13.5136V29.5516C1 30.4003 1.3746 31.2142 2.0414 31.8143C2.70819 32.4144 3.61256 32.7516 4.55556 32.7516H29.4444C30.3874 32.7516 31.2918 32.4144 31.9586 31.8143C32.6254 31.2142 33 30.4003 33 29.5516Z" stroke="white" stroke-width="2" stroke-linecap="round" stroke-linejoin="round"/>
</svg>
