<svg width="12" height="12" viewBox="0 0 12 12" fill="none" xmlns="http://www.w3.org/2000/svg">
<path d="M5.98296 0.0341797C2.95873 0.0341797 0.498291 1.83525 0.498291 4.04902C0.498291 6.83148 5.98835 11.5845 5.98835 11.5845C5.98835 11.5845 11.4676 6.69465 11.4676 4.04902C11.4676 1.83525 9.00727 0.0341797 5.98296 0.0341797ZM7.63779 5.22456C7.18149 5.55851 6.58227 5.72552 5.98296 5.72552C5.38374 5.72552 4.78432 5.55851 4.32821 5.22456C3.41571 4.55667 3.41571 3.46988 4.32821 2.80191C4.77007 2.47833 5.35783 2.30011 5.98296 2.30011C6.60808 2.30011 7.19575 2.4784 7.63779 2.80191C8.5503 3.46988 8.5503 4.55667 7.63779 5.22456Z" fill="white"/>
</svg>
