<svg width="711" height="1463" viewBox="0 0 711 1463" fill="none" xmlns="http://www.w3.org/2000/svg">
<path fill-rule="evenodd" clip-rule="evenodd" d="M846.646 -120.886C968.951 -88.8 1108.59 -144.543 1211.03 -58.6646C1328.09 39.4782 1441.59 187.929 1443.01 379.09C1444.41 568.81 1297.73 712.54 1218 882.616C1140.5 1047.96 1107.56 1255.9 982.984 1360.45C853.482 1469.13 692.386 1483.33 553.766 1440.07C421.909 1398.91 340.168 1253.53 247.04 1130.77C149.912 1002.73 -8.0201 902.387 0.737113 711.062C9.59009 517.645 204.937 420.983 287.364 249.781C365.257 87.9965 336.279 -168.61 465.498 -254.251C594.784 -339.936 713.71 -155.761 846.646 -120.886Z" fill="#686DE0"/>
</svg>
